<mxfile host="app.diagrams.net" agent="Mozilla/5.0 (X11; Ubuntu; Linux x86_64; rv:132.0) Gecko/20100101 Firefox/132.0" version="26.0.9" pages="4">
  <diagram name="Page-1" id="30wrRdPdhN-gAaU9zIhw">
    <mxGraphModel dx="1434" dy="1895" grid="1" gridSize="10" guides="1" tooltips="1" connect="1" arrows="1" fold="1" page="1" pageScale="1" pageWidth="850" pageHeight="1100" math="0" shadow="0">
      <root>
        <mxCell id="0" />
        <mxCell id="1" parent="0" />
        <mxCell id="5yqk-CnQFSfe1nWokWSy-3" value="" style="edgeStyle=orthogonalEdgeStyle;rounded=0;orthogonalLoop=1;jettySize=auto;html=1;" edge="1" parent="1" source="5yqk-CnQFSfe1nWokWSy-1" target="5yqk-CnQFSfe1nWokWSy-2">
          <mxGeometry relative="1" as="geometry" />
        </mxCell>
        <mxCell id="5yqk-CnQFSfe1nWokWSy-1" value="start" style="ellipse;whiteSpace=wrap;html=1;" vertex="1" parent="1">
          <mxGeometry x="201" y="-1090" width="120" height="80" as="geometry" />
        </mxCell>
        <mxCell id="5yqk-CnQFSfe1nWokWSy-5" value="" style="edgeStyle=orthogonalEdgeStyle;rounded=0;orthogonalLoop=1;jettySize=auto;html=1;" edge="1" parent="1" source="5yqk-CnQFSfe1nWokWSy-2" target="5yqk-CnQFSfe1nWokWSy-4">
          <mxGeometry relative="1" as="geometry" />
        </mxCell>
        <mxCell id="5yqk-CnQFSfe1nWokWSy-2" value="read n" style="shape=parallelogram;perimeter=parallelogramPerimeter;whiteSpace=wrap;html=1;fixedSize=1;" vertex="1" parent="1">
          <mxGeometry x="201" y="-960" width="120" height="60" as="geometry" />
        </mxCell>
        <mxCell id="5yqk-CnQFSfe1nWokWSy-7" value="" style="edgeStyle=orthogonalEdgeStyle;rounded=0;orthogonalLoop=1;jettySize=auto;html=1;" edge="1" parent="1" source="5yqk-CnQFSfe1nWokWSy-4" target="5yqk-CnQFSfe1nWokWSy-6">
          <mxGeometry relative="1" as="geometry" />
        </mxCell>
        <mxCell id="5yqk-CnQFSfe1nWokWSy-4" value="cont = 1" style="whiteSpace=wrap;html=1;" vertex="1" parent="1">
          <mxGeometry x="201" y="-840" width="120" height="60" as="geometry" />
        </mxCell>
        <mxCell id="5yqk-CnQFSfe1nWokWSy-9" value="" style="edgeStyle=orthogonalEdgeStyle;rounded=0;orthogonalLoop=1;jettySize=auto;html=1;" edge="1" parent="1" source="5yqk-CnQFSfe1nWokWSy-6" target="5yqk-CnQFSfe1nWokWSy-8">
          <mxGeometry relative="1" as="geometry" />
        </mxCell>
        <mxCell id="5yqk-CnQFSfe1nWokWSy-6" value="som = 0" style="whiteSpace=wrap;html=1;" vertex="1" parent="1">
          <mxGeometry x="201" y="-720" width="120" height="60" as="geometry" />
        </mxCell>
        <mxCell id="5yqk-CnQFSfe1nWokWSy-10" style="edgeStyle=orthogonalEdgeStyle;rounded=0;orthogonalLoop=1;jettySize=auto;html=1;" edge="1" parent="1" source="5yqk-CnQFSfe1nWokWSy-8">
          <mxGeometry relative="1" as="geometry">
            <mxPoint x="80" y="-500" as="targetPoint" />
          </mxGeometry>
        </mxCell>
        <mxCell id="GPJ_5f5gL30BKBHWHtaN-1" value="false" style="edgeLabel;html=1;align=center;verticalAlign=middle;resizable=0;points=[];" vertex="1" connectable="0" parent="5yqk-CnQFSfe1nWokWSy-10">
          <mxGeometry x="-0.4215" relative="1" as="geometry">
            <mxPoint as="offset" />
          </mxGeometry>
        </mxCell>
        <mxCell id="5yqk-CnQFSfe1nWokWSy-26" style="edgeStyle=orthogonalEdgeStyle;rounded=0;orthogonalLoop=1;jettySize=auto;html=1;" edge="1" parent="1" source="5yqk-CnQFSfe1nWokWSy-8">
          <mxGeometry relative="1" as="geometry">
            <mxPoint x="400" y="-560" as="targetPoint" />
          </mxGeometry>
        </mxCell>
        <mxCell id="GPJ_5f5gL30BKBHWHtaN-2" value="true" style="edgeLabel;html=1;align=center;verticalAlign=middle;resizable=0;points=[];" vertex="1" connectable="0" parent="5yqk-CnQFSfe1nWokWSy-26">
          <mxGeometry x="-0.0051" y="3" relative="1" as="geometry">
            <mxPoint x="1" as="offset" />
          </mxGeometry>
        </mxCell>
        <mxCell id="5yqk-CnQFSfe1nWokWSy-8" value="n &amp;gt; 0" style="rhombus;whiteSpace=wrap;html=1;" vertex="1" parent="1">
          <mxGeometry x="221" y="-600" width="80" height="80" as="geometry" />
        </mxCell>
        <mxCell id="5yqk-CnQFSfe1nWokWSy-13" value="" style="edgeStyle=orthogonalEdgeStyle;rounded=0;orthogonalLoop=1;jettySize=auto;html=1;" edge="1" parent="1" source="5yqk-CnQFSfe1nWokWSy-11" target="5yqk-CnQFSfe1nWokWSy-12">
          <mxGeometry relative="1" as="geometry" />
        </mxCell>
        <mxCell id="5yqk-CnQFSfe1nWokWSy-11" value="write&quot;error&quot;" style="shape=parallelogram;perimeter=parallelogramPerimeter;whiteSpace=wrap;html=1;fixedSize=1;" vertex="1" parent="1">
          <mxGeometry x="20" y="-500" width="120" height="60" as="geometry" />
        </mxCell>
        <mxCell id="5yqk-CnQFSfe1nWokWSy-12" value="end" style="ellipse;whiteSpace=wrap;html=1;" vertex="1" parent="1">
          <mxGeometry x="40" y="-370" width="80" height="80" as="geometry" />
        </mxCell>
        <mxCell id="5yqk-CnQFSfe1nWokWSy-17" value="" style="edgeStyle=orthogonalEdgeStyle;rounded=0;orthogonalLoop=1;jettySize=auto;html=1;" edge="1" parent="1" source="5yqk-CnQFSfe1nWokWSy-14" target="5yqk-CnQFSfe1nWokWSy-16">
          <mxGeometry relative="1" as="geometry" />
        </mxCell>
        <mxCell id="5yqk-CnQFSfe1nWokWSy-28" style="edgeStyle=orthogonalEdgeStyle;rounded=0;orthogonalLoop=1;jettySize=auto;html=1;" edge="1" parent="1" source="5yqk-CnQFSfe1nWokWSy-14">
          <mxGeometry relative="1" as="geometry">
            <mxPoint x="250" y="-479" as="targetPoint" />
          </mxGeometry>
        </mxCell>
        <mxCell id="5yqk-CnQFSfe1nWokWSy-14" value="count &amp;lt;= n" style="rhombus;whiteSpace=wrap;html=1;" vertex="1" parent="1">
          <mxGeometry x="359" y="-519" width="80" height="80" as="geometry" />
        </mxCell>
        <mxCell id="5yqk-CnQFSfe1nWokWSy-19" value="" style="edgeStyle=orthogonalEdgeStyle;rounded=0;orthogonalLoop=1;jettySize=auto;html=1;" edge="1" parent="1" source="5yqk-CnQFSfe1nWokWSy-16" target="5yqk-CnQFSfe1nWokWSy-18">
          <mxGeometry relative="1" as="geometry" />
        </mxCell>
        <mxCell id="5yqk-CnQFSfe1nWokWSy-16" value="sum = sum + (cont*cont)" style="whiteSpace=wrap;html=1;" vertex="1" parent="1">
          <mxGeometry x="339" y="-349" width="120" height="60" as="geometry" />
        </mxCell>
        <mxCell id="5yqk-CnQFSfe1nWokWSy-20" style="edgeStyle=orthogonalEdgeStyle;rounded=0;orthogonalLoop=1;jettySize=auto;html=1;" edge="1" parent="1" source="5yqk-CnQFSfe1nWokWSy-18">
          <mxGeometry relative="1" as="geometry">
            <mxPoint x="399" y="-79" as="targetPoint" />
          </mxGeometry>
        </mxCell>
        <mxCell id="5yqk-CnQFSfe1nWokWSy-18" value="cont =+ 1" style="whiteSpace=wrap;html=1;" vertex="1" parent="1">
          <mxGeometry x="339" y="-209" width="120" height="60" as="geometry" />
        </mxCell>
        <mxCell id="5yqk-CnQFSfe1nWokWSy-21" value="" style="endArrow=classic;html=1;rounded=0;" edge="1" parent="1">
          <mxGeometry width="50" height="50" relative="1" as="geometry">
            <mxPoint x="399" y="-79" as="sourcePoint" />
            <mxPoint x="519" y="-79" as="targetPoint" />
          </mxGeometry>
        </mxCell>
        <mxCell id="5yqk-CnQFSfe1nWokWSy-23" value="" style="endArrow=classic;html=1;rounded=0;" edge="1" parent="1">
          <mxGeometry width="50" height="50" relative="1" as="geometry">
            <mxPoint x="519" y="-79" as="sourcePoint" />
            <mxPoint x="519" y="-479" as="targetPoint" />
          </mxGeometry>
        </mxCell>
        <mxCell id="5yqk-CnQFSfe1nWokWSy-27" value="" style="endArrow=classic;html=1;rounded=0;" edge="1" parent="1">
          <mxGeometry width="50" height="50" relative="1" as="geometry">
            <mxPoint x="400" y="-550" as="sourcePoint" />
            <mxPoint x="400" y="-520" as="targetPoint" />
          </mxGeometry>
        </mxCell>
        <mxCell id="5yqk-CnQFSfe1nWokWSy-31" value="" style="endArrow=classic;html=1;rounded=0;" edge="1" parent="1">
          <mxGeometry width="50" height="50" relative="1" as="geometry">
            <mxPoint x="520" y="-480" as="sourcePoint" />
            <mxPoint x="450" y="-480" as="targetPoint" />
          </mxGeometry>
        </mxCell>
        <mxCell id="5yqk-CnQFSfe1nWokWSy-32" value="" style="endArrow=classic;html=1;rounded=0;" edge="1" parent="1">
          <mxGeometry width="50" height="50" relative="1" as="geometry">
            <mxPoint x="240" y="-480" as="sourcePoint" />
            <mxPoint x="240" y="-400" as="targetPoint" />
          </mxGeometry>
        </mxCell>
        <mxCell id="5yqk-CnQFSfe1nWokWSy-33" value="write &quot;sum&quot;" style="shape=parallelogram;perimeter=parallelogramPerimeter;whiteSpace=wrap;html=1;fixedSize=1;size=30;" vertex="1" parent="1">
          <mxGeometry x="190" y="-400" width="120" height="60" as="geometry" />
        </mxCell>
        <mxCell id="5yqk-CnQFSfe1nWokWSy-34" style="edgeStyle=orthogonalEdgeStyle;rounded=0;orthogonalLoop=1;jettySize=auto;html=1;entryX=0.95;entryY=0.813;entryDx=0;entryDy=0;entryPerimeter=0;" edge="1" parent="1" source="5yqk-CnQFSfe1nWokWSy-33" target="5yqk-CnQFSfe1nWokWSy-12">
          <mxGeometry relative="1" as="geometry" />
        </mxCell>
      </root>
    </mxGraphModel>
  </diagram>
  <diagram id="P4K65Ik5JwsTuIRIUUp5" name="Page-2">
    <mxGraphModel dx="1434" dy="1895" grid="1" gridSize="10" guides="1" tooltips="1" connect="1" arrows="1" fold="1" page="1" pageScale="1" pageWidth="850" pageHeight="1100" math="0" shadow="0">
      <root>
        <mxCell id="0" />
        <mxCell id="1" parent="0" />
        <mxCell id="jfyBgmAKwESE0FfIU0kk-3" value="" style="edgeStyle=orthogonalEdgeStyle;rounded=0;orthogonalLoop=1;jettySize=auto;html=1;" edge="1" parent="1" source="jfyBgmAKwESE0FfIU0kk-1" target="jfyBgmAKwESE0FfIU0kk-2">
          <mxGeometry relative="1" as="geometry" />
        </mxCell>
        <mxCell id="jfyBgmAKwESE0FfIU0kk-1" value="start" style="ellipse;whiteSpace=wrap;html=1;" vertex="1" parent="1">
          <mxGeometry x="365" y="-1080" width="120" height="80" as="geometry" />
        </mxCell>
        <mxCell id="jfyBgmAKwESE0FfIU0kk-5" value="" style="edgeStyle=orthogonalEdgeStyle;rounded=0;orthogonalLoop=1;jettySize=auto;html=1;" edge="1" parent="1" source="jfyBgmAKwESE0FfIU0kk-2" target="jfyBgmAKwESE0FfIU0kk-4">
          <mxGeometry relative="1" as="geometry" />
        </mxCell>
        <mxCell id="jfyBgmAKwESE0FfIU0kk-2" value="cont = 1 " style="whiteSpace=wrap;html=1;" vertex="1" parent="1">
          <mxGeometry x="365" y="-910" width="120" height="60" as="geometry" />
        </mxCell>
        <mxCell id="jfyBgmAKwESE0FfIU0kk-7" value="" style="edgeStyle=orthogonalEdgeStyle;rounded=0;orthogonalLoop=1;jettySize=auto;html=1;" edge="1" parent="1" source="jfyBgmAKwESE0FfIU0kk-4" target="jfyBgmAKwESE0FfIU0kk-6">
          <mxGeometry relative="1" as="geometry" />
        </mxCell>
        <mxCell id="jfyBgmAKwESE0FfIU0kk-4" value="sum = 0" style="whiteSpace=wrap;html=1;" vertex="1" parent="1">
          <mxGeometry x="365" y="-770" width="120" height="60" as="geometry" />
        </mxCell>
        <mxCell id="jfyBgmAKwESE0FfIU0kk-9" value="" style="edgeStyle=orthogonalEdgeStyle;rounded=0;orthogonalLoop=1;jettySize=auto;html=1;" edge="1" parent="1" source="jfyBgmAKwESE0FfIU0kk-6" target="jfyBgmAKwESE0FfIU0kk-8">
          <mxGeometry relative="1" as="geometry" />
        </mxCell>
        <mxCell id="jfyBgmAKwESE0FfIU0kk-6" value="read x" style="shape=parallelogram;perimeter=parallelogramPerimeter;whiteSpace=wrap;html=1;fixedSize=1;" vertex="1" parent="1">
          <mxGeometry x="365" y="-630" width="120" height="60" as="geometry" />
        </mxCell>
        <mxCell id="jfyBgmAKwESE0FfIU0kk-11" value="" style="edgeStyle=orthogonalEdgeStyle;rounded=0;orthogonalLoop=1;jettySize=auto;html=1;" edge="1" parent="1" source="jfyBgmAKwESE0FfIU0kk-8" target="jfyBgmAKwESE0FfIU0kk-10">
          <mxGeometry relative="1" as="geometry" />
        </mxCell>
        <mxCell id="rj-AiWpZ1wZwH-7ebG5A-3" value="false" style="edgeLabel;html=1;align=center;verticalAlign=middle;resizable=0;points=[];" vertex="1" connectable="0" parent="jfyBgmAKwESE0FfIU0kk-11">
          <mxGeometry x="-0.4526" y="3" relative="1" as="geometry">
            <mxPoint as="offset" />
          </mxGeometry>
        </mxCell>
        <mxCell id="jfyBgmAKwESE0FfIU0kk-15" value="" style="edgeStyle=orthogonalEdgeStyle;rounded=0;orthogonalLoop=1;jettySize=auto;html=1;" edge="1" parent="1" source="jfyBgmAKwESE0FfIU0kk-8" target="jfyBgmAKwESE0FfIU0kk-14">
          <mxGeometry relative="1" as="geometry" />
        </mxCell>
        <mxCell id="rj-AiWpZ1wZwH-7ebG5A-4" value="true" style="edgeLabel;html=1;align=center;verticalAlign=middle;resizable=0;points=[];" vertex="1" connectable="0" parent="jfyBgmAKwESE0FfIU0kk-15">
          <mxGeometry x="-0.161" y="-1" relative="1" as="geometry">
            <mxPoint as="offset" />
          </mxGeometry>
        </mxCell>
        <mxCell id="jfyBgmAKwESE0FfIU0kk-8" value="x &amp;gt; 0" style="rhombus;whiteSpace=wrap;html=1;" vertex="1" parent="1">
          <mxGeometry x="385" y="-500" width="80" height="80" as="geometry" />
        </mxCell>
        <mxCell id="jfyBgmAKwESE0FfIU0kk-13" value="" style="edgeStyle=orthogonalEdgeStyle;rounded=0;orthogonalLoop=1;jettySize=auto;html=1;" edge="1" parent="1" source="jfyBgmAKwESE0FfIU0kk-10" target="jfyBgmAKwESE0FfIU0kk-12">
          <mxGeometry relative="1" as="geometry" />
        </mxCell>
        <mxCell id="jfyBgmAKwESE0FfIU0kk-10" value="write &quot;error&quot;" style="shape=parallelogram;perimeter=parallelogramPerimeter;whiteSpace=wrap;html=1;fixedSize=1;" vertex="1" parent="1">
          <mxGeometry x="90" y="-410" width="120" height="60" as="geometry" />
        </mxCell>
        <mxCell id="jfyBgmAKwESE0FfIU0kk-12" value="end" style="ellipse;whiteSpace=wrap;html=1;" vertex="1" parent="1">
          <mxGeometry x="110" y="-280" width="80" height="80" as="geometry" />
        </mxCell>
        <mxCell id="jfyBgmAKwESE0FfIU0kk-17" value="" style="edgeStyle=orthogonalEdgeStyle;rounded=0;orthogonalLoop=1;jettySize=auto;html=1;" edge="1" parent="1" source="jfyBgmAKwESE0FfIU0kk-14" target="jfyBgmAKwESE0FfIU0kk-16">
          <mxGeometry relative="1" as="geometry" />
        </mxCell>
        <mxCell id="jfyBgmAKwESE0FfIU0kk-33" value="" style="edgeStyle=orthogonalEdgeStyle;rounded=0;orthogonalLoop=1;jettySize=auto;html=1;" edge="1" parent="1" source="jfyBgmAKwESE0FfIU0kk-14" target="jfyBgmAKwESE0FfIU0kk-32">
          <mxGeometry relative="1" as="geometry" />
        </mxCell>
        <mxCell id="jfyBgmAKwESE0FfIU0kk-14" value="cont == 10" style="rhombus;whiteSpace=wrap;html=1;" vertex="1" parent="1">
          <mxGeometry x="580" y="-410" width="80" height="80" as="geometry" />
        </mxCell>
        <mxCell id="jfyBgmAKwESE0FfIU0kk-19" value="" style="edgeStyle=orthogonalEdgeStyle;rounded=0;orthogonalLoop=1;jettySize=auto;html=1;" edge="1" parent="1" source="jfyBgmAKwESE0FfIU0kk-16" target="jfyBgmAKwESE0FfIU0kk-18">
          <mxGeometry relative="1" as="geometry" />
        </mxCell>
        <mxCell id="jfyBgmAKwESE0FfIU0kk-16" value="read n" style="shape=parallelogram;perimeter=parallelogramPerimeter;whiteSpace=wrap;html=1;fixedSize=1;" vertex="1" parent="1">
          <mxGeometry x="560" y="-240" width="120" height="60" as="geometry" />
        </mxCell>
        <mxCell id="jfyBgmAKwESE0FfIU0kk-21" value="" style="edgeStyle=orthogonalEdgeStyle;rounded=0;orthogonalLoop=1;jettySize=auto;html=1;" edge="1" parent="1" source="jfyBgmAKwESE0FfIU0kk-18" target="jfyBgmAKwESE0FfIU0kk-20">
          <mxGeometry relative="1" as="geometry" />
        </mxCell>
        <mxCell id="rj-AiWpZ1wZwH-7ebG5A-1" value="false" style="edgeLabel;html=1;align=center;verticalAlign=middle;resizable=0;points=[];" vertex="1" connectable="0" parent="jfyBgmAKwESE0FfIU0kk-21">
          <mxGeometry x="-0.2485" y="1" relative="1" as="geometry">
            <mxPoint as="offset" />
          </mxGeometry>
        </mxCell>
        <mxCell id="jfyBgmAKwESE0FfIU0kk-25" value="" style="edgeStyle=orthogonalEdgeStyle;rounded=0;orthogonalLoop=1;jettySize=auto;html=1;" edge="1" parent="1" source="jfyBgmAKwESE0FfIU0kk-18" target="jfyBgmAKwESE0FfIU0kk-24">
          <mxGeometry relative="1" as="geometry" />
        </mxCell>
        <mxCell id="rj-AiWpZ1wZwH-7ebG5A-2" value="true" style="edgeLabel;html=1;align=center;verticalAlign=middle;resizable=0;points=[];" vertex="1" connectable="0" parent="jfyBgmAKwESE0FfIU0kk-25">
          <mxGeometry y="-3" relative="1" as="geometry">
            <mxPoint as="offset" />
          </mxGeometry>
        </mxCell>
        <mxCell id="jfyBgmAKwESE0FfIU0kk-18" value="&lt;div&gt;x%2==0&lt;/div&gt;&lt;div&gt;and&lt;/div&gt;&lt;div&gt;n&amp;gt;x/2&lt;br&gt;&lt;/div&gt;" style="rhombus;whiteSpace=wrap;html=1;" vertex="1" parent="1">
          <mxGeometry x="580" y="-110" width="80" height="80" as="geometry" />
        </mxCell>
        <mxCell id="jfyBgmAKwESE0FfIU0kk-23" value="" style="edgeStyle=orthogonalEdgeStyle;rounded=0;orthogonalLoop=1;jettySize=auto;html=1;" edge="1" parent="1" source="jfyBgmAKwESE0FfIU0kk-20" target="jfyBgmAKwESE0FfIU0kk-22">
          <mxGeometry relative="1" as="geometry" />
        </mxCell>
        <mxCell id="jfyBgmAKwESE0FfIU0kk-20" value="n&amp;lt;x" style="rhombus;whiteSpace=wrap;html=1;" vertex="1" parent="1">
          <mxGeometry x="425" y="-20" width="80" height="80" as="geometry" />
        </mxCell>
        <mxCell id="jfyBgmAKwESE0FfIU0kk-31" style="edgeStyle=orthogonalEdgeStyle;rounded=0;orthogonalLoop=1;jettySize=auto;html=1;" edge="1" parent="1" source="jfyBgmAKwESE0FfIU0kk-22" target="jfyBgmAKwESE0FfIU0kk-14">
          <mxGeometry relative="1" as="geometry">
            <mxPoint x="830" y="-120" as="targetPoint" />
            <Array as="points">
              <mxPoint x="870" y="180" />
              <mxPoint x="870" y="-370" />
            </Array>
          </mxGeometry>
        </mxCell>
        <mxCell id="jfyBgmAKwESE0FfIU0kk-22" value="sum = sum +n" style="whiteSpace=wrap;html=1;" vertex="1" parent="1">
          <mxGeometry x="405" y="150" width="120" height="60" as="geometry" />
        </mxCell>
        <mxCell id="jfyBgmAKwESE0FfIU0kk-30" style="edgeStyle=orthogonalEdgeStyle;rounded=0;orthogonalLoop=1;jettySize=auto;html=1;" edge="1" parent="1">
          <mxGeometry relative="1" as="geometry">
            <mxPoint x="660" y="-369" as="targetPoint" />
            <mxPoint x="780" y="-99" as="sourcePoint" />
            <Array as="points">
              <mxPoint x="780" y="-370" />
              <mxPoint x="721" y="-370" />
              <mxPoint x="721" y="-369" />
            </Array>
          </mxGeometry>
        </mxCell>
        <mxCell id="jfyBgmAKwESE0FfIU0kk-24" value="sum = sum+n" style="whiteSpace=wrap;html=1;" vertex="1" parent="1">
          <mxGeometry x="720" y="-100" width="120" height="60" as="geometry" />
        </mxCell>
        <mxCell id="jfyBgmAKwESE0FfIU0kk-34" style="edgeStyle=orthogonalEdgeStyle;rounded=0;orthogonalLoop=1;jettySize=auto;html=1;entryX=1;entryY=0.5;entryDx=0;entryDy=0;" edge="1" parent="1" source="jfyBgmAKwESE0FfIU0kk-32" target="jfyBgmAKwESE0FfIU0kk-12">
          <mxGeometry relative="1" as="geometry" />
        </mxCell>
        <mxCell id="jfyBgmAKwESE0FfIU0kk-32" value="write &quot;som&quot;" style="shape=parallelogram;perimeter=parallelogramPerimeter;whiteSpace=wrap;html=1;fixedSize=1;" vertex="1" parent="1">
          <mxGeometry x="400" y="-400" width="120" height="60" as="geometry" />
        </mxCell>
      </root>
    </mxGraphModel>
  </diagram>
  <diagram id="sKIrW8IaSbLVik5Jk_wV" name="Page-3">
    <mxGraphModel dx="1364" dy="795" grid="1" gridSize="10" guides="1" tooltips="1" connect="1" arrows="1" fold="1" page="1" pageScale="1" pageWidth="850" pageHeight="1100" math="0" shadow="0">
      <root>
        <mxCell id="0" />
        <mxCell id="1" parent="0" />
        <mxCell id="RZ7Xcz0GzmyCfQoVbM2Z-3" value="" style="edgeStyle=orthogonalEdgeStyle;rounded=0;orthogonalLoop=1;jettySize=auto;html=1;" edge="1" parent="1" source="RZ7Xcz0GzmyCfQoVbM2Z-1" target="RZ7Xcz0GzmyCfQoVbM2Z-2">
          <mxGeometry relative="1" as="geometry" />
        </mxCell>
        <mxCell id="RZ7Xcz0GzmyCfQoVbM2Z-1" value="start" style="ellipse;whiteSpace=wrap;html=1;" vertex="1" parent="1">
          <mxGeometry x="365" y="20" width="120" height="80" as="geometry" />
        </mxCell>
        <mxCell id="RZ7Xcz0GzmyCfQoVbM2Z-5" value="" style="edgeStyle=orthogonalEdgeStyle;rounded=0;orthogonalLoop=1;jettySize=auto;html=1;" edge="1" parent="1" source="RZ7Xcz0GzmyCfQoVbM2Z-2" target="RZ7Xcz0GzmyCfQoVbM2Z-4">
          <mxGeometry relative="1" as="geometry" />
        </mxCell>
        <mxCell id="RZ7Xcz0GzmyCfQoVbM2Z-2" value="&lt;div&gt;media = 0,&lt;/div&gt;&lt;div&gt;cont = 0,&lt;/div&gt;&lt;div&gt;sum = 0&lt;br&gt;&lt;/div&gt;" style="whiteSpace=wrap;html=1;" vertex="1" parent="1">
          <mxGeometry x="365" y="190" width="120" height="60" as="geometry" />
        </mxCell>
        <mxCell id="RZ7Xcz0GzmyCfQoVbM2Z-7" value="" style="edgeStyle=orthogonalEdgeStyle;rounded=0;orthogonalLoop=1;jettySize=auto;html=1;" edge="1" parent="1" source="RZ7Xcz0GzmyCfQoVbM2Z-4" target="RZ7Xcz0GzmyCfQoVbM2Z-6">
          <mxGeometry relative="1" as="geometry" />
        </mxCell>
        <mxCell id="RZ7Xcz0GzmyCfQoVbM2Z-4" value="write &quot; vuoi inserire un voto?&quot;" style="shape=parallelogram;perimeter=parallelogramPerimeter;whiteSpace=wrap;html=1;fixedSize=1;" vertex="1" parent="1">
          <mxGeometry x="318" y="310" width="215" height="80" as="geometry" />
        </mxCell>
        <mxCell id="RZ7Xcz0GzmyCfQoVbM2Z-9" value="" style="edgeStyle=orthogonalEdgeStyle;rounded=0;orthogonalLoop=1;jettySize=auto;html=1;" edge="1" parent="1" source="RZ7Xcz0GzmyCfQoVbM2Z-6" target="RZ7Xcz0GzmyCfQoVbM2Z-8">
          <mxGeometry relative="1" as="geometry" />
        </mxCell>
        <mxCell id="RZ7Xcz0GzmyCfQoVbM2Z-6" value="read options" style="shape=parallelogram;perimeter=parallelogramPerimeter;whiteSpace=wrap;html=1;fixedSize=1;" vertex="1" parent="1">
          <mxGeometry x="365.5" y="480" width="120" height="60" as="geometry" />
        </mxCell>
        <mxCell id="RZ7Xcz0GzmyCfQoVbM2Z-11" value="" style="edgeStyle=orthogonalEdgeStyle;rounded=0;orthogonalLoop=1;jettySize=auto;html=1;" edge="1" parent="1" source="RZ7Xcz0GzmyCfQoVbM2Z-8" target="RZ7Xcz0GzmyCfQoVbM2Z-10">
          <mxGeometry relative="1" as="geometry" />
        </mxCell>
        <mxCell id="RZ7Xcz0GzmyCfQoVbM2Z-12" value="true" style="edgeLabel;html=1;align=center;verticalAlign=middle;resizable=0;points=[];" vertex="1" connectable="0" parent="RZ7Xcz0GzmyCfQoVbM2Z-11">
          <mxGeometry x="-0.0714" y="-5" relative="1" as="geometry">
            <mxPoint as="offset" />
          </mxGeometry>
        </mxCell>
        <mxCell id="RZ7Xcz0GzmyCfQoVbM2Z-14" value="" style="edgeStyle=orthogonalEdgeStyle;rounded=0;orthogonalLoop=1;jettySize=auto;html=1;" edge="1" parent="1" source="RZ7Xcz0GzmyCfQoVbM2Z-8" target="RZ7Xcz0GzmyCfQoVbM2Z-13">
          <mxGeometry relative="1" as="geometry" />
        </mxCell>
        <mxCell id="RZ7Xcz0GzmyCfQoVbM2Z-15" value="false" style="edgeLabel;html=1;align=center;verticalAlign=middle;resizable=0;points=[];" vertex="1" connectable="0" parent="RZ7Xcz0GzmyCfQoVbM2Z-14">
          <mxGeometry x="-0.0167" relative="1" as="geometry">
            <mxPoint as="offset" />
          </mxGeometry>
        </mxCell>
        <mxCell id="RZ7Xcz0GzmyCfQoVbM2Z-8" value="options==si" style="rhombus;whiteSpace=wrap;html=1;" vertex="1" parent="1">
          <mxGeometry x="385.5" y="610" width="80" height="80" as="geometry" />
        </mxCell>
        <mxCell id="RZ7Xcz0GzmyCfQoVbM2Z-17" value="" style="edgeStyle=orthogonalEdgeStyle;rounded=0;orthogonalLoop=1;jettySize=auto;html=1;" edge="1" parent="1" source="RZ7Xcz0GzmyCfQoVbM2Z-10" target="RZ7Xcz0GzmyCfQoVbM2Z-16">
          <mxGeometry relative="1" as="geometry" />
        </mxCell>
        <mxCell id="RZ7Xcz0GzmyCfQoVbM2Z-10" value="read voto" style="shape=parallelogram;perimeter=parallelogramPerimeter;whiteSpace=wrap;html=1;fixedSize=1;" vertex="1" parent="1">
          <mxGeometry x="525.5" y="620" width="120" height="60" as="geometry" />
        </mxCell>
        <mxCell id="RZ7Xcz0GzmyCfQoVbM2Z-25" value="" style="edgeStyle=orthogonalEdgeStyle;rounded=0;orthogonalLoop=1;jettySize=auto;html=1;" edge="1" parent="1" source="RZ7Xcz0GzmyCfQoVbM2Z-13" target="RZ7Xcz0GzmyCfQoVbM2Z-24">
          <mxGeometry relative="1" as="geometry" />
        </mxCell>
        <mxCell id="RZ7Xcz0GzmyCfQoVbM2Z-13" value="media = sum/cont" style="whiteSpace=wrap;html=1;" vertex="1" parent="1">
          <mxGeometry x="205.5" y="620" width="120" height="60" as="geometry" />
        </mxCell>
        <mxCell id="RZ7Xcz0GzmyCfQoVbM2Z-19" value="" style="edgeStyle=orthogonalEdgeStyle;rounded=0;orthogonalLoop=1;jettySize=auto;html=1;" edge="1" parent="1" source="RZ7Xcz0GzmyCfQoVbM2Z-16" target="RZ7Xcz0GzmyCfQoVbM2Z-18">
          <mxGeometry relative="1" as="geometry" />
        </mxCell>
        <mxCell id="RZ7Xcz0GzmyCfQoVbM2Z-23" style="edgeStyle=orthogonalEdgeStyle;rounded=0;orthogonalLoop=1;jettySize=auto;html=1;" edge="1" parent="1" source="RZ7Xcz0GzmyCfQoVbM2Z-16">
          <mxGeometry relative="1" as="geometry">
            <mxPoint x="750" y="790" as="targetPoint" />
          </mxGeometry>
        </mxCell>
        <mxCell id="RZ7Xcz0GzmyCfQoVbM2Z-16" value="voto&amp;gt;0" style="rhombus;whiteSpace=wrap;html=1;" vertex="1" parent="1">
          <mxGeometry x="545.5" y="750" width="80" height="80" as="geometry" />
        </mxCell>
        <mxCell id="RZ7Xcz0GzmyCfQoVbM2Z-21" value="" style="edgeStyle=orthogonalEdgeStyle;rounded=0;orthogonalLoop=1;jettySize=auto;html=1;" edge="1" parent="1" source="RZ7Xcz0GzmyCfQoVbM2Z-18" target="RZ7Xcz0GzmyCfQoVbM2Z-20">
          <mxGeometry relative="1" as="geometry" />
        </mxCell>
        <mxCell id="RZ7Xcz0GzmyCfQoVbM2Z-18" value="cont += 1" style="whiteSpace=wrap;html=1;" vertex="1" parent="1">
          <mxGeometry x="525.5" y="920" width="120" height="60" as="geometry" />
        </mxCell>
        <mxCell id="RZ7Xcz0GzmyCfQoVbM2Z-22" style="edgeStyle=orthogonalEdgeStyle;rounded=0;orthogonalLoop=1;jettySize=auto;html=1;entryX=1;entryY=0.5;entryDx=0;entryDy=0;" edge="1" parent="1" source="RZ7Xcz0GzmyCfQoVbM2Z-20" target="RZ7Xcz0GzmyCfQoVbM2Z-6">
          <mxGeometry relative="1" as="geometry">
            <mxPoint x="750" y="540" as="targetPoint" />
            <Array as="points">
              <mxPoint x="750" y="1090" />
              <mxPoint x="750" y="510" />
            </Array>
          </mxGeometry>
        </mxCell>
        <mxCell id="RZ7Xcz0GzmyCfQoVbM2Z-20" value="sum = sum + voto" style="whiteSpace=wrap;html=1;" vertex="1" parent="1">
          <mxGeometry x="525.5" y="1060" width="120" height="60" as="geometry" />
        </mxCell>
        <mxCell id="RZ7Xcz0GzmyCfQoVbM2Z-27" value="" style="edgeStyle=orthogonalEdgeStyle;rounded=0;orthogonalLoop=1;jettySize=auto;html=1;" edge="1" parent="1" source="RZ7Xcz0GzmyCfQoVbM2Z-24" target="RZ7Xcz0GzmyCfQoVbM2Z-26">
          <mxGeometry relative="1" as="geometry" />
        </mxCell>
        <mxCell id="RZ7Xcz0GzmyCfQoVbM2Z-24" value="write &quot;media&quot;" style="shape=parallelogram;perimeter=parallelogramPerimeter;whiteSpace=wrap;html=1;fixedSize=1;" vertex="1" parent="1">
          <mxGeometry x="205.5" y="760" width="120" height="60" as="geometry" />
        </mxCell>
        <mxCell id="RZ7Xcz0GzmyCfQoVbM2Z-26" value="end" style="ellipse;whiteSpace=wrap;html=1;" vertex="1" parent="1">
          <mxGeometry x="225.5" y="890" width="80" height="80" as="geometry" />
        </mxCell>
      </root>
    </mxGraphModel>
  </diagram>
  <diagram id="vT3SVKoJVawHSu0DOCjn" name="Page-4">
    <mxGraphModel dx="1434" dy="795" grid="1" gridSize="10" guides="1" tooltips="1" connect="1" arrows="1" fold="1" page="1" pageScale="1" pageWidth="850" pageHeight="1100" math="0" shadow="0">
      <root>
        <mxCell id="0" />
        <mxCell id="1" parent="0" />
        <mxCell id="rL9TbQ_iFfa24m2enwJu-3" value="" style="edgeStyle=orthogonalEdgeStyle;rounded=0;orthogonalLoop=1;jettySize=auto;html=1;" edge="1" parent="1" source="rL9TbQ_iFfa24m2enwJu-1" target="rL9TbQ_iFfa24m2enwJu-2">
          <mxGeometry relative="1" as="geometry" />
        </mxCell>
        <mxCell id="rL9TbQ_iFfa24m2enwJu-1" value="start" style="ellipse;whiteSpace=wrap;html=1;" vertex="1" parent="1">
          <mxGeometry x="365" y="20" width="120" height="80" as="geometry" />
        </mxCell>
        <mxCell id="rL9TbQ_iFfa24m2enwJu-5" value="" style="edgeStyle=orthogonalEdgeStyle;rounded=0;orthogonalLoop=1;jettySize=auto;html=1;" edge="1" parent="1" source="rL9TbQ_iFfa24m2enwJu-2" target="rL9TbQ_iFfa24m2enwJu-4">
          <mxGeometry relative="1" as="geometry" />
        </mxCell>
        <mxCell id="rL9TbQ_iFfa24m2enwJu-2" value="sum = 0" style="whiteSpace=wrap;html=1;" vertex="1" parent="1">
          <mxGeometry x="365" y="190" width="120" height="60" as="geometry" />
        </mxCell>
        <mxCell id="rL9TbQ_iFfa24m2enwJu-7" value="" style="edgeStyle=orthogonalEdgeStyle;rounded=0;orthogonalLoop=1;jettySize=auto;html=1;" edge="1" parent="1" source="rL9TbQ_iFfa24m2enwJu-4" target="rL9TbQ_iFfa24m2enwJu-6">
          <mxGeometry relative="1" as="geometry" />
        </mxCell>
        <mxCell id="rL9TbQ_iFfa24m2enwJu-4" value="cont = 0" style="whiteSpace=wrap;html=1;" vertex="1" parent="1">
          <mxGeometry x="365" y="330" width="120" height="60" as="geometry" />
        </mxCell>
        <mxCell id="rL9TbQ_iFfa24m2enwJu-9" value="" style="edgeStyle=orthogonalEdgeStyle;rounded=0;orthogonalLoop=1;jettySize=auto;html=1;" edge="1" parent="1" source="rL9TbQ_iFfa24m2enwJu-6" target="rL9TbQ_iFfa24m2enwJu-8">
          <mxGeometry relative="1" as="geometry" />
        </mxCell>
        <mxCell id="rL9TbQ_iFfa24m2enwJu-6" value="read a, b" style="shape=parallelogram;perimeter=parallelogramPerimeter;whiteSpace=wrap;html=1;fixedSize=1;" vertex="1" parent="1">
          <mxGeometry x="365" y="470" width="120" height="60" as="geometry" />
        </mxCell>
        <mxCell id="rL9TbQ_iFfa24m2enwJu-11" value="" style="edgeStyle=orthogonalEdgeStyle;rounded=0;orthogonalLoop=1;jettySize=auto;html=1;" edge="1" parent="1" source="rL9TbQ_iFfa24m2enwJu-8" target="rL9TbQ_iFfa24m2enwJu-10">
          <mxGeometry relative="1" as="geometry" />
        </mxCell>
        <mxCell id="rL9TbQ_iFfa24m2enwJu-15" value="" style="edgeStyle=orthogonalEdgeStyle;rounded=0;orthogonalLoop=1;jettySize=auto;html=1;" edge="1" parent="1" source="rL9TbQ_iFfa24m2enwJu-8" target="rL9TbQ_iFfa24m2enwJu-14">
          <mxGeometry relative="1" as="geometry" />
        </mxCell>
        <mxCell id="rL9TbQ_iFfa24m2enwJu-8" value="&lt;div&gt;a%1==0 and a&amp;gt;0&lt;/div&gt;&lt;div&gt;&amp;nbsp;and&amp;nbsp;&lt;/div&gt;&lt;div&gt;b%1==0 and b&amp;gt;0&lt;/div&gt;&lt;div&gt;&amp;nbsp;and&lt;/div&gt;&lt;div&gt;&amp;nbsp;a&amp;lt;b&lt;br&gt;&lt;/div&gt;" style="rhombus;whiteSpace=wrap;html=1;" vertex="1" parent="1">
          <mxGeometry x="321" y="580" width="208" height="170" as="geometry" />
        </mxCell>
        <mxCell id="rL9TbQ_iFfa24m2enwJu-13" value="" style="edgeStyle=orthogonalEdgeStyle;rounded=0;orthogonalLoop=1;jettySize=auto;html=1;" edge="1" parent="1" source="rL9TbQ_iFfa24m2enwJu-10" target="rL9TbQ_iFfa24m2enwJu-12">
          <mxGeometry relative="1" as="geometry" />
        </mxCell>
        <mxCell id="rL9TbQ_iFfa24m2enwJu-10" value="write &quot;error&quot;" style="shape=parallelogram;perimeter=parallelogramPerimeter;whiteSpace=wrap;html=1;fixedSize=1;" vertex="1" parent="1">
          <mxGeometry x="77" y="635" width="120" height="60" as="geometry" />
        </mxCell>
        <mxCell id="rL9TbQ_iFfa24m2enwJu-12" value="end" style="ellipse;whiteSpace=wrap;html=1;" vertex="1" parent="1">
          <mxGeometry x="97" y="765" width="80" height="80" as="geometry" />
        </mxCell>
        <mxCell id="rL9TbQ_iFfa24m2enwJu-17" value="" style="edgeStyle=orthogonalEdgeStyle;rounded=0;orthogonalLoop=1;jettySize=auto;html=1;" edge="1" parent="1" source="rL9TbQ_iFfa24m2enwJu-14" target="rL9TbQ_iFfa24m2enwJu-16">
          <mxGeometry relative="1" as="geometry" />
        </mxCell>
        <mxCell id="rL9TbQ_iFfa24m2enwJu-14" value="cont = a" style="whiteSpace=wrap;html=1;" vertex="1" parent="1">
          <mxGeometry x="653" y="635" width="120" height="60" as="geometry" />
        </mxCell>
        <mxCell id="rL9TbQ_iFfa24m2enwJu-19" value="" style="edgeStyle=orthogonalEdgeStyle;rounded=0;orthogonalLoop=1;jettySize=auto;html=1;" edge="1" parent="1" source="rL9TbQ_iFfa24m2enwJu-16" target="rL9TbQ_iFfa24m2enwJu-18">
          <mxGeometry relative="1" as="geometry" />
        </mxCell>
        <mxCell id="rL9TbQ_iFfa24m2enwJu-22" value="" style="edgeStyle=orthogonalEdgeStyle;rounded=0;orthogonalLoop=1;jettySize=auto;html=1;" edge="1" parent="1" source="rL9TbQ_iFfa24m2enwJu-16" target="rL9TbQ_iFfa24m2enwJu-21">
          <mxGeometry relative="1" as="geometry" />
        </mxCell>
        <mxCell id="rL9TbQ_iFfa24m2enwJu-16" value="cont &amp;lt; b" style="rhombus;whiteSpace=wrap;html=1;" vertex="1" parent="1">
          <mxGeometry x="673" y="765" width="80" height="80" as="geometry" />
        </mxCell>
        <mxCell id="rL9TbQ_iFfa24m2enwJu-20" style="edgeStyle=orthogonalEdgeStyle;rounded=0;orthogonalLoop=1;jettySize=auto;html=1;" edge="1" parent="1" source="rL9TbQ_iFfa24m2enwJu-18">
          <mxGeometry relative="1" as="geometry">
            <mxPoint x="180" y="805" as="targetPoint" />
          </mxGeometry>
        </mxCell>
        <mxCell id="rL9TbQ_iFfa24m2enwJu-18" value="write &quot;error&quot;" style="shape=parallelogram;perimeter=parallelogramPerimeter;whiteSpace=wrap;html=1;fixedSize=1;" vertex="1" parent="1">
          <mxGeometry x="493" y="775" width="120" height="60" as="geometry" />
        </mxCell>
        <mxCell id="rL9TbQ_iFfa24m2enwJu-24" value="" style="edgeStyle=orthogonalEdgeStyle;rounded=0;orthogonalLoop=1;jettySize=auto;html=1;" edge="1" parent="1" source="rL9TbQ_iFfa24m2enwJu-21" target="rL9TbQ_iFfa24m2enwJu-23">
          <mxGeometry relative="1" as="geometry" />
        </mxCell>
        <mxCell id="rL9TbQ_iFfa24m2enwJu-21" value="sum = sum + cont" style="whiteSpace=wrap;html=1;" vertex="1" parent="1">
          <mxGeometry x="653" y="935" width="120" height="60" as="geometry" />
        </mxCell>
        <mxCell id="rL9TbQ_iFfa24m2enwJu-26" style="edgeStyle=orthogonalEdgeStyle;rounded=0;orthogonalLoop=1;jettySize=auto;html=1;entryX=1;entryY=0.5;entryDx=0;entryDy=0;" edge="1" parent="1" source="rL9TbQ_iFfa24m2enwJu-23" target="rL9TbQ_iFfa24m2enwJu-16">
          <mxGeometry relative="1" as="geometry">
            <Array as="points">
              <mxPoint x="800" y="1105" />
              <mxPoint x="800" y="820" />
              <mxPoint x="773" y="820" />
              <mxPoint x="773" y="805" />
            </Array>
          </mxGeometry>
        </mxCell>
        <mxCell id="rL9TbQ_iFfa24m2enwJu-23" value="cont += 1" style="whiteSpace=wrap;html=1;" vertex="1" parent="1">
          <mxGeometry x="653" y="1075" width="120" height="60" as="geometry" />
        </mxCell>
      </root>
    </mxGraphModel>
  </diagram>
</mxfile>
